<mxfile host="app.diagrams.net" modified="2024-01-01T02:21:48.181Z" agent="Mozilla/5.0 (Windows NT 10.0; Win64; x64) AppleWebKit/537.36 (KHTML, like Gecko) Chrome/120.0.0.0 Safari/537.36 Edg/120.0.0.0" etag="8VLnOXTfF0v8viLePS4o" version="22.1.15" type="device">
  <diagram name="Página-1" id="FyMgFBOVCBPbvyAPNtqi">
    <mxGraphModel dx="1666" dy="751" grid="1" gridSize="10" guides="1" tooltips="1" connect="1" arrows="1" fold="1" page="1" pageScale="1" pageWidth="827" pageHeight="1169" math="0" shadow="0">
      <root>
        <mxCell id="0" />
        <mxCell id="1" parent="0" />
        <mxCell id="z5K27v6XYuMFssWCfiFa-47" value="display7seg&amp;nbsp;= puntuación" style="text;html=1;align=center;verticalAlign=middle;resizable=0;points=[];autosize=1;strokeColor=none;fillColor=none;" parent="1" vertex="1">
          <mxGeometry x="1180" y="590" width="160" height="30" as="geometry" />
        </mxCell>
        <mxCell id="Apj8_BOgyylKSBu7IIYC-23" value="leds = 000&amp;nbsp;→ apagado&lt;br&gt;leds = 001&amp;nbsp;→ jugando&lt;br&gt;leds = 010&amp;nbsp;→ quietos&lt;br&gt;leds = 011&amp;nbsp;→ ganar&lt;br&gt;leds = 100&amp;nbsp;→ pierde&lt;br&gt;&amp;nbsp;" style="text;html=1;align=center;verticalAlign=middle;resizable=0;points=[];autosize=1;strokeColor=none;fillColor=none;" parent="1" vertex="1">
          <mxGeometry x="1188.91" y="620" width="140" height="100" as="geometry" />
        </mxCell>
        <mxCell id="ENZWCclauM9PjRn8BcHO-7" style="edgeStyle=orthogonalEdgeStyle;rounded=0;orthogonalLoop=1;jettySize=auto;html=1;entryX=0;entryY=0.5;entryDx=0;entryDy=0;" parent="1" source="ENZWCclauM9PjRn8BcHO-2" target="ENZWCclauM9PjRn8BcHO-3" edge="1">
          <mxGeometry relative="1" as="geometry" />
        </mxCell>
        <mxCell id="ENZWCclauM9PjRn8BcHO-16" value="¿Inicio = 1?" style="edgeLabel;html=1;align=center;verticalAlign=middle;resizable=0;points=[];" parent="ENZWCclauM9PjRn8BcHO-7" vertex="1" connectable="0">
          <mxGeometry x="-0.1941" y="1" relative="1" as="geometry">
            <mxPoint x="7" y="1" as="offset" />
          </mxGeometry>
        </mxCell>
        <mxCell id="ENZWCclauM9PjRn8BcHO-8" style="edgeStyle=orthogonalEdgeStyle;rounded=0;orthogonalLoop=1;jettySize=auto;html=1;exitX=0.5;exitY=0;exitDx=0;exitDy=0;" parent="1" source="ENZWCclauM9PjRn8BcHO-2" target="ENZWCclauM9PjRn8BcHO-2" edge="1">
          <mxGeometry relative="1" as="geometry">
            <mxPoint x="409.90999999999997" y="289.91" as="targetPoint" />
            <mxPoint x="456.45" y="279.91" as="sourcePoint" />
            <Array as="points">
              <mxPoint x="475.90999999999997" y="239.91000000000003" />
              <mxPoint x="409.90999999999997" y="239.91000000000003" />
            </Array>
          </mxGeometry>
        </mxCell>
        <mxCell id="ENZWCclauM9PjRn8BcHO-10" value="¿Inicio = 0?" style="edgeLabel;html=1;align=center;verticalAlign=middle;resizable=0;points=[];" parent="ENZWCclauM9PjRn8BcHO-8" vertex="1" connectable="0">
          <mxGeometry x="0.4473" y="-3" relative="1" as="geometry">
            <mxPoint as="offset" />
          </mxGeometry>
        </mxCell>
        <mxCell id="ENZWCclauM9PjRn8BcHO-2" value="&lt;div&gt;mux_leds &amp;lt;= 000&lt;/div&gt;&lt;div&gt;sumador &amp;lt;= 11&lt;/div&gt;&lt;div&gt;cambio_dificultad &amp;lt;= 1&lt;br&gt;&lt;/div&gt;&lt;div&gt;enable_contador_5seg &amp;lt;= 0&lt;/div&gt;" style="ellipse;whiteSpace=wrap;html=1;aspect=fixed;" parent="1" vertex="1">
          <mxGeometry x="379.90999999999997" y="279.91" width="191" height="191" as="geometry" />
        </mxCell>
        <mxCell id="ENZWCclauM9PjRn8BcHO-24" style="edgeStyle=orthogonalEdgeStyle;rounded=0;orthogonalLoop=1;jettySize=auto;html=1;entryX=0;entryY=0.5;entryDx=0;entryDy=0;" parent="1" source="ENZWCclauM9PjRn8BcHO-3" target="ENZWCclauM9PjRn8BcHO-4" edge="1">
          <mxGeometry relative="1" as="geometry" />
        </mxCell>
        <mxCell id="ENZWCclauM9PjRn8BcHO-25" value="¿Jugar = 1?" style="edgeLabel;html=1;align=center;verticalAlign=middle;resizable=0;points=[];" parent="ENZWCclauM9PjRn8BcHO-24" vertex="1" connectable="0">
          <mxGeometry x="-0.1356" relative="1" as="geometry">
            <mxPoint as="offset" />
          </mxGeometry>
        </mxCell>
        <mxCell id="ENZWCclauM9PjRn8BcHO-3" value="&lt;div&gt;mux_leds &amp;lt;= 001&lt;/div&gt;&lt;div&gt;cambio_dificultad &amp;lt;= 0&lt;br&gt;&lt;/div&gt;&lt;div&gt;enable_contador_5seg &amp;lt;= 0&lt;/div&gt;" style="ellipse;whiteSpace=wrap;html=1;aspect=fixed;" parent="1" vertex="1">
          <mxGeometry x="649.91" y="279.91" width="191" height="191" as="geometry" />
        </mxCell>
        <mxCell id="ENZWCclauM9PjRn8BcHO-4" value="&lt;div&gt;mux_leds &amp;lt;= 010&lt;/div&gt;&lt;div&gt;enable_contador_5seg &amp;lt;= 1&lt;/div&gt;" style="ellipse;whiteSpace=wrap;html=1;aspect=fixed;" parent="1" vertex="1">
          <mxGeometry x="914.92" y="279.91" width="191" height="191" as="geometry" />
        </mxCell>
        <mxCell id="ENZWCclauM9PjRn8BcHO-37" style="edgeStyle=orthogonalEdgeStyle;rounded=0;orthogonalLoop=1;jettySize=auto;html=1;entryX=0.68;entryY=0.021;entryDx=0;entryDy=0;entryPerimeter=0;" parent="1" source="ENZWCclauM9PjRn8BcHO-5" target="ENZWCclauM9PjRn8BcHO-26" edge="1">
          <mxGeometry relative="1" as="geometry">
            <Array as="points">
              <mxPoint x="679.91" y="605.91" />
            </Array>
          </mxGeometry>
        </mxCell>
        <mxCell id="ENZWCclauM9PjRn8BcHO-38" value="¿Fallo = 1?" style="edgeLabel;html=1;align=center;verticalAlign=middle;resizable=0;points=[];" parent="ENZWCclauM9PjRn8BcHO-37" vertex="1" connectable="0">
          <mxGeometry x="-0.1245" y="-2" relative="1" as="geometry">
            <mxPoint as="offset" />
          </mxGeometry>
        </mxCell>
        <mxCell id="ENZWCclauM9PjRn8BcHO-5" value="&lt;div&gt;&lt;span style=&quot;background-color: initial;&quot;&gt;enable_contador_5seg &amp;lt;= 0&lt;/span&gt;&lt;br&gt;&lt;/div&gt;" style="ellipse;whiteSpace=wrap;html=1;aspect=fixed;" parent="1" vertex="1">
          <mxGeometry x="775.41" y="509.9100000000001" width="191" height="191" as="geometry" />
        </mxCell>
        <mxCell id="ENZWCclauM9PjRn8BcHO-53" style="edgeStyle=orthogonalEdgeStyle;rounded=0;orthogonalLoop=1;jettySize=auto;html=1;entryX=0.04;entryY=0.693;entryDx=0;entryDy=0;entryPerimeter=0;" parent="1" source="ENZWCclauM9PjRn8BcHO-6" target="ENZWCclauM9PjRn8BcHO-2" edge="1">
          <mxGeometry relative="1" as="geometry">
            <mxPoint x="319.90999999999997" y="439.90999999999997" as="targetPoint" />
            <Array as="points">
              <mxPoint x="329.90999999999997" y="869.91" />
              <mxPoint x="329.90999999999997" y="411.90999999999997" />
            </Array>
          </mxGeometry>
        </mxCell>
        <mxCell id="ENZWCclauM9PjRn8BcHO-57" value="¿contador5seg = 1001?&lt;br&gt;and&lt;br&gt;¿puntuacion = 1001?" style="edgeLabel;html=1;align=center;verticalAlign=middle;resizable=0;points=[];" parent="ENZWCclauM9PjRn8BcHO-53" vertex="1" connectable="0">
          <mxGeometry x="0.0288" y="3" relative="1" as="geometry">
            <mxPoint y="-1" as="offset" />
          </mxGeometry>
        </mxCell>
        <mxCell id="ENZWCclauM9PjRn8BcHO-6" value="&lt;div&gt;mux_leds &amp;lt;= 011&lt;/div&gt;&lt;div&gt;enable_contador_5seg &amp;lt;= 1&lt;/div&gt;" style="ellipse;whiteSpace=wrap;html=1;aspect=fixed;" parent="1" vertex="1">
          <mxGeometry x="829.91" y="749.91" width="191" height="191" as="geometry" />
        </mxCell>
        <mxCell id="ENZWCclauM9PjRn8BcHO-11" value="S0" style="text;html=1;strokeColor=none;fillColor=none;align=center;verticalAlign=middle;whiteSpace=wrap;rounded=0;" parent="1" vertex="1">
          <mxGeometry x="445.40999999999997" y="299.91" width="60" height="30" as="geometry" />
        </mxCell>
        <mxCell id="ENZWCclauM9PjRn8BcHO-12" value="S1" style="text;html=1;strokeColor=none;fillColor=none;align=center;verticalAlign=middle;whiteSpace=wrap;rounded=0;" parent="1" vertex="1">
          <mxGeometry x="715.41" y="299.91" width="60" height="30" as="geometry" />
        </mxCell>
        <mxCell id="ENZWCclauM9PjRn8BcHO-13" value="S2" style="text;html=1;strokeColor=none;fillColor=none;align=center;verticalAlign=middle;whiteSpace=wrap;rounded=0;" parent="1" vertex="1">
          <mxGeometry x="980.42" y="299.91" width="60" height="30" as="geometry" />
        </mxCell>
        <mxCell id="ENZWCclauM9PjRn8BcHO-14" value="SIntermedio" style="text;html=1;strokeColor=none;fillColor=none;align=center;verticalAlign=middle;whiteSpace=wrap;rounded=0;" parent="1" vertex="1">
          <mxGeometry x="840.91" y="529.9100000000001" width="60" height="30" as="geometry" />
        </mxCell>
        <mxCell id="ENZWCclauM9PjRn8BcHO-15" value="S4" style="text;html=1;strokeColor=none;fillColor=none;align=center;verticalAlign=middle;whiteSpace=wrap;rounded=0;" parent="1" vertex="1">
          <mxGeometry x="895.41" y="769.91" width="60" height="30" as="geometry" />
        </mxCell>
        <mxCell id="ENZWCclauM9PjRn8BcHO-18" value="" style="endArrow=classic;html=1;rounded=0;exitX=0;exitY=1;exitDx=0;exitDy=0;" parent="1" source="ENZWCclauM9PjRn8BcHO-3" target="ENZWCclauM9PjRn8BcHO-3" edge="1">
          <mxGeometry relative="1" as="geometry">
            <mxPoint x="649.91" y="498.1300000000001" as="sourcePoint" />
            <mxPoint x="709.3269999999999" y="469.90700000000004" as="targetPoint" />
            <Array as="points">
              <mxPoint x="659.91" y="469.90999999999997" />
              <mxPoint x="669.91" y="489.90999999999997" />
              <mxPoint x="699.91" y="498.1300000000001" />
            </Array>
          </mxGeometry>
        </mxCell>
        <mxCell id="ENZWCclauM9PjRn8BcHO-19" value="¿Jugar = 0?" style="edgeLabel;resizable=0;html=1;align=center;verticalAlign=middle;" parent="ENZWCclauM9PjRn8BcHO-18" connectable="0" vertex="1">
          <mxGeometry relative="1" as="geometry">
            <mxPoint x="-6" y="-2" as="offset" />
          </mxGeometry>
        </mxCell>
        <mxCell id="ENZWCclauM9PjRn8BcHO-26" value="&lt;div&gt;mux_leds &amp;lt;= 100&lt;/div&gt;&lt;div&gt;enable_contador_5seg &amp;lt;= 1&lt;/div&gt;" style="ellipse;whiteSpace=wrap;html=1;aspect=fixed;" parent="1" vertex="1">
          <mxGeometry x="549.91" y="629.9100000000001" width="191" height="191" as="geometry" />
        </mxCell>
        <mxCell id="ENZWCclauM9PjRn8BcHO-27" value="S3" style="text;html=1;strokeColor=none;fillColor=none;align=center;verticalAlign=middle;whiteSpace=wrap;rounded=0;" parent="1" vertex="1">
          <mxGeometry x="615.41" y="659.9100000000001" width="60" height="30" as="geometry" />
        </mxCell>
        <mxCell id="ENZWCclauM9PjRn8BcHO-28" style="edgeStyle=orthogonalEdgeStyle;rounded=0;orthogonalLoop=1;jettySize=auto;html=1;" parent="1" source="ENZWCclauM9PjRn8BcHO-4" edge="1">
          <mxGeometry relative="1" as="geometry">
            <mxPoint x="869.91" y="509.9100000000001" as="targetPoint" />
            <Array as="points">
              <mxPoint x="1010.91" y="479.90999999999997" />
              <mxPoint x="869.91" y="479.90999999999997" />
            </Array>
          </mxGeometry>
        </mxCell>
        <mxCell id="ENZWCclauM9PjRn8BcHO-29" value="¿contador5seg = 1001?" style="edgeLabel;html=1;align=center;verticalAlign=middle;resizable=0;points=[];" parent="ENZWCclauM9PjRn8BcHO-28" vertex="1" connectable="0">
          <mxGeometry x="0.0118" y="2" relative="1" as="geometry">
            <mxPoint y="-2" as="offset" />
          </mxGeometry>
        </mxCell>
        <mxCell id="ENZWCclauM9PjRn8BcHO-31" value="" style="endArrow=classic;html=1;rounded=0;exitX=0.643;exitY=0;exitDx=0;exitDy=0;entryX=0.268;entryY=0.039;entryDx=0;entryDy=0;entryPerimeter=0;exitPerimeter=0;" parent="1" source="ENZWCclauM9PjRn8BcHO-4" target="ENZWCclauM9PjRn8BcHO-4" edge="1">
          <mxGeometry relative="1" as="geometry">
            <mxPoint x="967.91" y="209.91000000000003" as="sourcePoint" />
            <mxPoint x="1002.91" y="231.91000000000003" as="targetPoint" />
            <Array as="points">
              <mxPoint x="1039.91" y="249.91000000000003" />
              <mxPoint x="999.91" y="249.91000000000003" />
              <mxPoint x="969.91" y="259.91" />
            </Array>
          </mxGeometry>
        </mxCell>
        <mxCell id="ENZWCclauM9PjRn8BcHO-32" value="¿contador != 1001?" style="edgeLabel;resizable=0;html=1;align=center;verticalAlign=middle;" parent="ENZWCclauM9PjRn8BcHO-31" connectable="0" vertex="1">
          <mxGeometry relative="1" as="geometry">
            <mxPoint x="-7" as="offset" />
          </mxGeometry>
        </mxCell>
        <mxCell id="ENZWCclauM9PjRn8BcHO-39" style="edgeStyle=orthogonalEdgeStyle;rounded=0;orthogonalLoop=1;jettySize=auto;html=1;exitX=0;exitY=0.5;exitDx=0;exitDy=0;entryX=0.48;entryY=1.011;entryDx=0;entryDy=0;entryPerimeter=0;" parent="1" source="ENZWCclauM9PjRn8BcHO-26" target="ENZWCclauM9PjRn8BcHO-2" edge="1">
          <mxGeometry relative="1" as="geometry">
            <mxPoint x="1124.874" y="670.7320000000002" as="sourcePoint" />
            <mxPoint x="470.90999999999997" y="475.90999999999997" as="targetPoint" />
            <Array as="points">
              <mxPoint x="471.90999999999997" y="725.91" />
            </Array>
          </mxGeometry>
        </mxCell>
        <mxCell id="ENZWCclauM9PjRn8BcHO-40" value="¿contador5seg = 1001?" style="edgeLabel;html=1;align=center;verticalAlign=middle;resizable=0;points=[];" parent="ENZWCclauM9PjRn8BcHO-39" vertex="1" connectable="0">
          <mxGeometry x="0.0118" y="2" relative="1" as="geometry">
            <mxPoint y="-2" as="offset" />
          </mxGeometry>
        </mxCell>
        <mxCell id="ENZWCclauM9PjRn8BcHO-45" value="" style="endArrow=classic;html=1;rounded=0;exitX=0.464;exitY=0.007;exitDx=0;exitDy=0;entryX=0;entryY=0;entryDx=0;entryDy=0;exitPerimeter=0;" parent="1" source="ENZWCclauM9PjRn8BcHO-26" target="ENZWCclauM9PjRn8BcHO-26" edge="1">
          <mxGeometry relative="1" as="geometry">
            <mxPoint x="652.208" y="631.2470000000001" as="sourcePoint" />
            <mxPoint x="579.8190000000001" y="666.3910000000001" as="targetPoint" />
            <Array as="points">
              <mxPoint x="630.91" y="609.91" />
              <mxPoint x="590.91" y="609.91" />
              <mxPoint x="570.91" y="629.91" />
            </Array>
          </mxGeometry>
        </mxCell>
        <mxCell id="ENZWCclauM9PjRn8BcHO-46" value="¿contador != 1001?" style="edgeLabel;resizable=0;html=1;align=center;verticalAlign=middle;" parent="ENZWCclauM9PjRn8BcHO-45" connectable="0" vertex="1">
          <mxGeometry relative="1" as="geometry">
            <mxPoint x="-3" as="offset" />
          </mxGeometry>
        </mxCell>
        <mxCell id="ENZWCclauM9PjRn8BcHO-47" style="edgeStyle=orthogonalEdgeStyle;rounded=0;orthogonalLoop=1;jettySize=auto;html=1;entryX=0.775;entryY=0.084;entryDx=0;entryDy=0;entryPerimeter=0;" parent="1" source="ENZWCclauM9PjRn8BcHO-5" target="ENZWCclauM9PjRn8BcHO-6" edge="1">
          <mxGeometry relative="1" as="geometry">
            <Array as="points">
              <mxPoint x="977.91" y="605.91" />
            </Array>
          </mxGeometry>
        </mxCell>
        <mxCell id="ENZWCclauM9PjRn8BcHO-48" value="¿Fallo = 0?&lt;br&gt;sumador &amp;lt;= 01" style="edgeLabel;html=1;align=center;verticalAlign=middle;resizable=0;points=[];" parent="ENZWCclauM9PjRn8BcHO-47" vertex="1" connectable="0">
          <mxGeometry x="-0.3475" y="-3" relative="1" as="geometry">
            <mxPoint x="6" y="30" as="offset" />
          </mxGeometry>
        </mxCell>
        <mxCell id="ENZWCclauM9PjRn8BcHO-51" value="" style="endArrow=classic;html=1;rounded=0;exitX=0.316;exitY=0.021;exitDx=0;exitDy=0;entryX=0.067;entryY=0.26;entryDx=0;entryDy=0;exitPerimeter=0;entryPerimeter=0;" parent="1" source="ENZWCclauM9PjRn8BcHO-6" target="ENZWCclauM9PjRn8BcHO-6" edge="1">
          <mxGeometry relative="1" as="geometry">
            <mxPoint x="887.91" y="760.91" as="sourcePoint" />
            <mxPoint x="826.91" y="787.91" as="targetPoint" />
            <Array as="points">
              <mxPoint x="879.91" y="739.91" />
              <mxPoint x="839.91" y="739.91" />
              <mxPoint x="819.91" y="759.91" />
            </Array>
          </mxGeometry>
        </mxCell>
        <mxCell id="ENZWCclauM9PjRn8BcHO-52" value="¿contador != 1001?" style="edgeLabel;resizable=0;html=1;align=center;verticalAlign=middle;" parent="ENZWCclauM9PjRn8BcHO-51" connectable="0" vertex="1">
          <mxGeometry relative="1" as="geometry">
            <mxPoint x="7" y="4" as="offset" />
          </mxGeometry>
        </mxCell>
        <mxCell id="ENZWCclauM9PjRn8BcHO-58" style="edgeStyle=orthogonalEdgeStyle;rounded=0;orthogonalLoop=1;jettySize=auto;html=1;entryX=0.574;entryY=-0.001;entryDx=0;entryDy=0;entryPerimeter=0;" parent="1" source="ENZWCclauM9PjRn8BcHO-6" target="ENZWCclauM9PjRn8BcHO-3" edge="1">
          <mxGeometry relative="1" as="geometry">
            <Array as="points">
              <mxPoint x="1130" y="845" />
              <mxPoint x="1130" y="200" />
              <mxPoint x="760" y="200" />
            </Array>
          </mxGeometry>
        </mxCell>
        <mxCell id="ENZWCclauM9PjRn8BcHO-59" value="¿contador5seg &amp;lt; 1001?&lt;br&gt;and&lt;br&gt;¿puntuacion &amp;lt; 1001?" style="edgeLabel;html=1;align=center;verticalAlign=middle;resizable=0;points=[];" parent="ENZWCclauM9PjRn8BcHO-58" vertex="1" connectable="0">
          <mxGeometry x="-0.1155" relative="1" as="geometry">
            <mxPoint x="-1" y="108" as="offset" />
          </mxGeometry>
        </mxCell>
      </root>
    </mxGraphModel>
  </diagram>
</mxfile>
